<?xml version="1.0" encoding="UTF-8"?>
<!DOCTYPE svg PUBLIC "-//W3C//DTD SVG 1.1//EN" "http://www.w3.org/Graphics/SVG/1.1/DTD/svg11.dtd">
<svg xmlns="http://www.w3.org/2000/svg" version="1.1" width="99px" height="50px" style="shape-rendering:geometricPrecision; text-rendering:geometricPrecision; image-rendering:optimizeQuality; fill-rule:evenodd; clip-rule:evenodd" xmlns:xlink="http://www.w3.org/1999/xlink">
<g><path style="opacity:0.689" fill="#aa314e" d="M 37.5,-0.5 C 38.1667,-0.5 38.8333,-0.5 39.5,-0.5C 39.6204,1.19863 39.9537,2.86529 40.5,4.5C 37.9879,7.50468 36.3212,11.0047 35.5,15C 30.2394,19.2169 26.906,24.7169 25.5,31.5C 24.1667,32.8333 22.8333,32.8333 21.5,31.5C 20.3333,29.1667 19.1667,26.8333 18,24.5C 17.2419,26.7695 17.4086,28.9361 18.5,31C 14.8333,31.6667 11.1667,31.6667 7.5,31C 9.01641,27.966 8.68308,25.1326 6.5,22.5C 7.43832,21.4471 8.60499,20.7804 10,20.5C 12.5202,20.5976 15.0202,20.5976 17.5,20.5C 20.4695,21.4266 22.3028,23.4266 23,26.5C 24.5196,23.6177 25.8529,20.6177 27,17.5C 32.0959,13.9396 34.7626,8.93963 35,2.5C 36.045,1.62656 36.8783,0.626561 37.5,-0.5 Z M 11.5,23.5 C 13.7224,23.5587 14.7224,24.7253 14.5,27C 14.6125,28.6624 13.9458,29.8291 12.5,30.5C 11.5258,28.2573 11.1924,25.924 11.5,23.5 Z"/></g>
<g><path style="opacity:0.431" fill="#aa314e" d="M -0.5,4.5 C 3.46737,4.032 6.96737,5.032 10,7.5C 11.3561,6.61983 12.8561,6.28649 14.5,6.5C 14.5,8.5 14.5,10.5 14.5,12.5C 11.1719,11.3537 7.83852,11.1871 4.5,12C 5.88502,10.0355 5.71835,8.20213 4,6.5C 3.50454,8.4727 3.33788,10.4727 3.5,12.5C 0.226823,12.5294 -0.439844,11.1961 1.5,8.5C 1.25284,7.28665 0.586173,6.61998 -0.5,6.5C -0.5,5.83333 -0.5,5.16667 -0.5,4.5 Z"/></g>
<g><path style="opacity:0.687" fill="#aa314e" d="M -0.5,17.5 C -0.5,17.1667 -0.5,16.8333 -0.5,16.5C 1.85684,16.3367 4.19018,16.5034 6.5,17C 4.14703,21.6045 4.14703,26.2712 6.5,31C 0.560247,32.6076 -1.10642,30.2743 1.5,24C 1.46677,21.3897 0.800107,19.223 -0.5,17.5 Z"/></g>
<g><path style="opacity:0.615" fill="#aa314e" d="M 48.5,22.5 C 48.5,22.1667 48.5,21.8333 48.5,21.5C 49.4756,20.1851 50.4756,18.8518 51.5,17.5C 52.3267,19.162 53.4933,20.4954 55,21.5C 58.9928,20.6489 63.1595,20.3155 67.5,20.5C 68.6473,20.8178 69.4806,21.4844 70,22.5C 70.2178,25.4262 70.7178,28.2595 71.5,31C 64.7833,31.2038 58.1166,31.7038 51.5,32.5C 50.914,32.2907 50.414,31.9574 50,31.5C 49.8195,28.3054 49.3195,25.3054 48.5,22.5 Z M 52.5,22.5 C 55.2603,24.396 56.0937,27.0626 55,30.5C 54.6827,28.6992 54.016,28.3659 53,29.5C 52.5034,27.1902 52.3367,24.8568 52.5,22.5 Z M 58.5,23.5 C 59.5,23.5 60.5,23.5 61.5,23.5C 61.5,25.8333 61.5,28.1667 61.5,30.5C 60.5,30.5 59.5,30.5 58.5,30.5C 58.5,28.1667 58.5,25.8333 58.5,23.5 Z M 64.5,23.5 C 65.5,23.5 66.5,23.5 67.5,23.5C 67.5,25.8333 67.5,28.1667 67.5,30.5C 66.5,30.5 65.5,30.5 64.5,30.5C 64.5,28.1667 64.5,25.8333 64.5,23.5 Z"/></g>
<g><path style="opacity:0.681" fill="#aa314e" d="M 98.5,20.5 C 98.5,21.1667 98.5,21.8333 98.5,22.5C 97.2749,23.1522 96.6083,24.3189 96.5,26C 96.6667,27.1667 96.8333,28.3333 97,29.5C 97.3826,28.944 97.8826,28.6107 98.5,28.5C 98.5,29.5 98.5,30.5 98.5,31.5C 96.7259,32.881 95.2259,32.5477 94,30.5C 93.7435,27.443 93.2435,24.443 92.5,21.5C 93.4803,20.0186 94.647,18.6853 96,17.5C 96.2355,19.1193 97.0689,20.1193 98.5,20.5 Z"/></g>
<g><path style="opacity:0.651" fill="#aa314e" d="M 48.5,21.5 C 48.5,21.8333 48.5,22.1667 48.5,22.5C 47.6091,23.2613 46.9424,24.2613 46.5,25.5C 48.2579,28.8507 47.4246,31.184 44,32.5C 42.85,31.5761 41.85,31.5761 41,32.5C 40.0853,31.6721 39.4186,30.6721 39,29.5C 34.3815,33.6201 31.2148,32.6201 29.5,26.5C 30.1755,21.6465 32.8421,19.8132 37.5,21C 38.5291,24.0571 39.8624,24.0571 41.5,21C 43.9291,20.2967 46.2625,20.4634 48.5,21.5 Z M 33.5,22.5 C 34.3764,22.3691 35.0431,22.7025 35.5,23.5C 33.1916,24.8734 32.5249,24.5401 33.5,22.5 Z M 42.5,23.5 C 43.4971,22.2875 44.4971,22.4542 45.5,24C 44.4232,24.4696 43.4232,24.3029 42.5,23.5 Z M 41.5,27.5 C 40.4168,27.4606 39.4168,27.1272 38.5,26.5C 36.5,30.5 34.5,30.5 32.5,26.5C 35.1062,25.3483 37.7728,25.1816 40.5,26C 41.056,26.3826 41.3893,26.8826 41.5,27.5 Z M 41.5,27.5 C 43.6859,27.5106 44.5192,28.5106 44,30.5C 42.955,29.6266 42.1217,28.6266 41.5,27.5 Z"/></g>
<g><path style="opacity:0.629" fill="#aa314e" d="M 74.5,20.5 C 79.9842,20.8923 85.3175,21.0589 90.5,21C 91.1667,24.3333 91.8333,27.6667 92.5,31C 88.8333,31.6667 85.1667,31.6667 81.5,31C 82.6023,28.5991 82.769,26.0991 82,23.5C 79.7988,24.9959 77.2988,25.9959 74.5,26.5C 76.5531,30.4121 78.7198,30.4121 81,26.5C 81.3416,29.6829 79.8416,31.6829 76.5,32.5C 70.7281,29.4032 70.0614,25.4032 74.5,20.5 Z M 75.5,22.5 C 76.3764,22.3691 77.0431,22.7025 77.5,23.5C 75.1916,24.8734 74.5249,24.5401 75.5,22.5 Z M 85.5,23.5 C 86.5,23.5 87.5,23.5 88.5,23.5C 88.5,25.8333 88.5,28.1667 88.5,30.5C 87.5,30.5 86.5,30.5 85.5,30.5C 85.5,28.1667 85.5,25.8333 85.5,23.5 Z"/></g>
<g><path style="opacity:0.421" fill="#989898" d="M 5.5,39.5 C 6.12167,40.6266 6.95501,41.6266 8,42.5C 10.2892,37.9975 12.9559,37.6641 16,41.5C 17.679,38.3008 19.679,37.9675 22,40.5C 22.7504,39.8742 23.5838,39.3742 24.5,39C 23.269,37.8173 23.269,36.6507 24.5,35.5C 25.1672,38.9773 25.8339,42.3107 26.5,45.5C 25.1667,46.8333 23.8333,46.8333 22.5,45.5C 20.1979,46.8217 17.8646,46.8217 15.5,45.5C 14.2519,46.0402 13.0852,46.7069 12,47.5C 9.66667,44.8333 7.33333,44.8333 5,47.5C 3.64387,46.6198 2.14387,46.2865 0.5,46.5C 0.156841,44.5168 0.823507,43.1834 2.5,42.5C 0.56356,40.7568 0.230226,38.7568 1.5,36.5C 3.45061,35.7439 5.28394,35.4106 7,35.5C 7.84421,37.4628 7.34421,38.7961 5.5,39.5 Z M 5.5,39.5 C 3.01721,39.27 2.51721,38.6034 4,37.5C 5.02992,37.8361 5.52992,38.5028 5.5,39.5 Z M 11.5,40.5 C 13.898,41.8823 14.0647,43.549 12,45.5C 10.4807,43.8608 10.314,42.1942 11.5,40.5 Z M 22.5,45.5 C 22.2249,43.2417 21.2249,42.9084 19.5,44.5C 18.3861,43.277 18.2195,41.9437 19,40.5C 19.677,42.689 20.8437,43.0224 22.5,41.5C 23.782,42.9584 23.782,44.2918 22.5,45.5 Z M 2.5,42.5 C 3.99525,42.4148 4.99525,43.0815 5.5,44.5C 3.60435,45.6394 2.60435,44.9728 2.5,42.5 Z"/></g>
<g><path style="opacity:0.455" fill="#989898" d="M 40.5,49.5 C 39.5,49.5 38.5,49.5 37.5,49.5C 37.9371,47.9256 38.9371,46.7589 40.5,46C 39.5214,43.8627 38.1881,42.0294 36.5,40.5C 35.2655,42.3983 35.5989,44.065 37.5,45.5C 35.8996,47.6789 34.3996,47.3455 33,44.5C 31.1755,46.8238 29.0088,47.1572 26.5,45.5C 25.6722,40.3253 27.6722,38.3253 32.5,39.5C 33.4776,39.0233 34.3109,38.3567 35,37.5C 36.4007,39.1922 38.2341,39.8588 40.5,39.5C 40.2022,42.3356 40.8689,42.8356 42.5,41C 42.1667,40.6667 41.8333,40.3333 41.5,40C 42.635,39.2506 43.635,39.4173 44.5,40.5C 43.1599,43.5293 41.8266,46.5293 40.5,49.5 Z M 28.5,43.5 C 29.9464,42.3871 31.6131,42.2204 33.5,43C 31.8608,44.5193 30.1942,44.686 28.5,43.5 Z"/></g>
</svg>
